<?xml version="1.0" encoding="utf-8"?>
<!-- Generator: Adobe Illustrator 29.7.1, SVG Export Plug-In . SVG Version: 9.03 Build 0)  -->
<svg version="1.0" id="Ebene_1" xmlns="http://www.w3.org/2000/svg" xmlns:xlink="http://www.w3.org/1999/xlink" x="0px" y="0px"
	 viewBox="0 0 512 512" enable-background="new 0 0 512 512" xml:space="preserve">
<g>
	<path fill="#FFFFFF" d="M99.5,504.5c-51.3,0-93-41.7-93-93v-312c0-51.3,41.7-93,93-93h312c51.3,0,93,41.7,93,93v312
		c0,51.3-41.7,93-93,93H99.5z"/>
	<path fill="#005290" d="M411.5,13.5c22.9,0,44.4,9,60.7,25.3s25.3,37.9,25.3,60.7v312c0,22.9-9,44.4-25.3,60.7
		s-37.9,25.3-60.7,25.3h-312c-22.9,0-44.4-9-60.7-25.3s-25.3-37.9-25.3-60.7v-312c0-22.9,9-44.4,25.3-60.7s37.9-25.3,60.7-25.3
		H411.5 M411.5-0.5h-312c-55,0-100,45-100,100v312c0,55,45,100,100,100h312c55,0,100-45,100-100v-312
		C511.5,44.5,466.5-0.5,411.5-0.5L411.5-0.5z"/>
</g>
<g id="layer1" transform="translate(-76.200105,-115.62292)">
	<g id="g1" transform="matrix(3.3139169,0,0,3.3139169,76.216727,114.23118)">
		<path id="path10" fill="#FF6600" d="M117.5,68.9h-28c-1.9,0-3.5-1.5-3.5-3.5c0,0,0,0,0,0v-28c0-1.9-1.6-3.5-3.5-3.5c0,0,0,0,0,0
			H72c-1.9,0-3.5,1.5-3.5,3.5c0,0,0,0,0,0v28c0,1.9-1.5,3.5-3.5,3.5c0,0,0,0,0,0H54.5c-1.9,0-3.5-1.5-3.5-3.5c0,0,0,0,0,0v-28
			c0-1.9-1.5-3.5-3.5-3.5c0,0,0,0,0,0H37c-1.9,0-3.5,1.6-3.5,3.5c0,0,0,0,0,0v80.5c0,1.9,1.5,3.5,3.5,3.5c0,0,0,0,0,0h80.5
			c1.9,0,3.5-1.5,3.5-3.5c0,0,0,0,0,0V72.5c0-1.9-1.5-3.5-3.4-3.6C117.6,68.9,117.5,68.9,117.5,68.9z M103.4,98.6
			c0,2.9-2.3,5.2-5.2,5.3c0,0,0,0,0,0h-7c-2.9,0-5.2-2.3-5.2-5.2c0,0,0,0,0,0v-7c0-2.9,2.3-5.2,5.2-5.3c0,0,0,0,0,0h7
			c2.9,0,5.2,2.3,5.2,5.2c0,0,0,0,0,0V98.6z"/>
	</g>
</g>
</svg>
